<svg width="71" height="64" viewBox="0 0 71 64" fill="none" xmlns="http://www.w3.org/2000/svg">
<path fill-rule="evenodd" clip-rule="evenodd" d="M34.1679 28.6835C35.0762 30.4661 35.0762 32.7997 35.0762 37.4668V41.9648C35.0762 42.4309 35.0762 42.6639 35.0668 42.8608C34.8636 47.1534 31.4295 50.5875 27.1369 50.7908C26.94 50.8001 26.68 50.8001 26.1601 50.8001L26.0267 50.8003C24.3263 50.8111 22.6699 51.342 21.2799 52.3214L21.1915 52.3844L16.8403 55.4924C15.3487 56.5578 13.3885 55.0191 14.0693 53.3172C14.5516 52.1115 13.6637 50.8001 12.3652 50.8001H11.3623C7.89055 50.8001 5.07617 47.9857 5.07617 44.514V37.4668C5.07617 32.7997 5.07617 30.4661 5.98445 28.6835C6.7834 27.1155 8.05823 25.8406 9.62625 25.0417C11.4088 24.1334 13.7424 24.1334 18.4095 24.1334H21.7428C26.4099 24.1334 28.7435 24.1334 30.5261 25.0417C32.0941 25.8406 33.3689 27.1155 34.1679 28.6835ZM15.0762 37.4668C15.0762 38.3872 14.33 39.1334 13.4095 39.1334C12.489 39.1334 11.7428 38.3872 11.7428 37.4668C11.7428 36.5463 12.489 35.8001 13.4095 35.8001C14.33 35.8001 15.0762 36.5463 15.0762 37.4668ZM21.7428 37.4668C21.7428 38.3872 20.9966 39.1334 20.0762 39.1334C19.1557 39.1334 18.4095 38.3872 18.4095 37.4668C18.4095 36.5463 19.1557 35.8001 20.0762 35.8001C20.9966 35.8001 21.7428 36.5463 21.7428 37.4668ZM26.7428 39.1334C27.6633 39.1334 28.4095 38.3872 28.4095 37.4668C28.4095 36.5463 27.6633 35.8001 26.7428 35.8001C25.8224 35.8001 25.0762 36.5463 25.0762 37.4668C25.0762 38.3872 25.8224 39.1334 26.7428 39.1334Z" fill="url(#paint0_linear_130_1148)"/>
<g filter="url(#filter0_b_130_1148)">
<path fill-rule="evenodd" clip-rule="evenodd" d="M63.6897 13.6802C65.1429 16.5323 65.1429 20.266 65.1429 27.7334V30.8913C65.1429 35.3956 65.1429 37.6478 64.6042 39.485C63.3265 43.8426 59.9188 47.2503 55.5612 48.528C53.724 49.0667 51.4719 49.0667 46.9675 49.0667H45.504L45.3304 49.067C42.6098 49.0844 39.9596 49.9337 37.7356 51.5009L37.5941 51.6015L30.6322 56.5744C28.2456 58.2791 25.1094 55.8172 26.1986 53.094C26.9702 51.165 25.5496 49.0667 23.472 49.0667H21.8673C16.3126 49.0667 11.8096 44.5637 11.8096 39.0089V27.7334C11.8096 20.266 11.8096 16.5323 13.2628 13.6802C14.5411 11.1713 16.5809 9.13158 19.0897 7.85327C21.9419 6.40002 25.6755 6.40002 33.1429 6.40002H43.8096C51.2769 6.40002 55.0106 6.40002 57.8628 7.85327C60.3716 9.13158 62.4113 11.1713 63.6897 13.6802Z" fill="#28A745" fill-opacity="0.35"/>
<path d="M65.6429 27.7334V27.7098C65.6429 23.996 65.6429 21.179 65.4596 18.9353C65.2754 16.6811 64.9037 14.9615 64.1352 13.4532C62.8089 10.8502 60.6927 8.73402 58.0898 7.40777C56.5815 6.63924 54.8619 6.26752 52.6076 6.08334C50.3639 5.90002 47.5469 5.90002 43.8331 5.90002H43.8096H33.1429H33.1193C29.4056 5.90002 26.5886 5.90002 24.3449 6.08334C22.0906 6.26752 20.371 6.63924 18.8627 7.40777C16.2598 8.73402 14.1436 10.8502 12.8173 13.4532C12.0488 14.9615 11.6771 16.6811 11.4929 18.9353C11.3096 21.179 11.3096 23.996 11.3096 27.7098V27.7334V39.0089C11.3096 44.8398 16.0364 49.5667 21.8673 49.5667H23.472C25.1959 49.5667 26.3746 51.3078 25.7344 52.9083C24.4597 56.0951 28.1298 58.9762 30.9228 56.9812L37.8841 52.0088L37.8848 52.0084L38.0236 51.9096C38.0239 51.9094 38.0242 51.9091 38.0245 51.9089C40.1645 50.4012 42.7143 49.584 45.332 49.567C45.3326 49.567 45.3331 49.567 45.3336 49.567L45.504 49.5667H45.5048H46.9675H47.0865C51.4784 49.5667 53.7956 49.5668 55.7019 49.0078C60.2229 47.6822 63.7584 44.1467 65.084 39.6257C65.643 37.7194 65.6429 35.4021 65.6429 31.0101V30.8913V27.7334Z" stroke="url(#paint1_linear_130_1148)" stroke-linecap="round"/>
</g>
<g filter="url(#filter1_d_130_1148)">
<path d="M30.4762 27.7333C30.4762 29.2061 29.2822 30.4 27.8095 30.4C26.3367 30.4 25.1428 29.2061 25.1428 27.7333C25.1428 26.2606 26.3367 25.0667 27.8095 25.0667C29.2822 25.0667 30.4762 26.2606 30.4762 27.7333Z" fill="url(#paint2_linear_130_1148)"/>
<path d="M41.1428 27.7333C41.1428 29.2061 39.9489 30.4 38.4762 30.4C37.0034 30.4 35.8095 29.2061 35.8095 27.7333C35.8095 26.2606 37.0034 25.0667 38.4762 25.0667C39.9489 25.0667 41.1428 26.2606 41.1428 27.7333Z" fill="url(#paint3_linear_130_1148)"/>
<path d="M49.1428 30.4C50.6156 30.4 51.8095 29.2061 51.8095 27.7333C51.8095 26.2606 50.6156 25.0667 49.1428 25.0667C47.6701 25.0667 46.4762 26.2606 46.4762 27.7333C46.4762 29.2061 47.6701 30.4 49.1428 30.4Z" fill="url(#paint4_linear_130_1148)"/>
</g>
<defs>
<filter id="filter0_b_130_1148" x="-13.1904" y="-18.6" width="103.333" height="100.742" filterUnits="userSpaceOnUse" color-interpolation-filters="sRGB">
<feFlood flood-opacity="0" result="BackgroundImageFix"/>
<feGaussianBlur in="BackgroundImageFix" stdDeviation="12"/>
<feComposite in2="SourceAlpha" operator="in" result="effect1_backgroundBlur_130_1148"/>
<feBlend mode="normal" in="SourceGraphic" in2="effect1_backgroundBlur_130_1148" result="shape"/>
</filter>
<filter id="filter1_d_130_1148" x="22.1428" y="22.0667" width="42.6667" height="21.3334" filterUnits="userSpaceOnUse" color-interpolation-filters="sRGB">
<feFlood flood-opacity="0" result="BackgroundImageFix"/>
<feColorMatrix in="SourceAlpha" type="matrix" values="0 0 0 0 0 0 0 0 0 0 0 0 0 0 0 0 0 0 127 0" result="hardAlpha"/>
<feOffset dx="5" dy="5"/>
<feGaussianBlur stdDeviation="4"/>
<feColorMatrix type="matrix" values="0 0 0 0 0.176471 0 0 0 0 0.556863 0 0 0 0 0.678431 0 0 0 0.5 0"/>
<feBlend mode="normal" in2="BackgroundImageFix" result="effect1_dropShadow_130_1148"/>
<feBlend mode="normal" in="SourceGraphic" in2="effect1_dropShadow_130_1148" result="shape"/>
</filter>
<linearGradient id="paint0_linear_130_1148" x1="5.07617" y1="55.844" x2="37.3348" y2="26.6272" gradientUnits="userSpaceOnUse">
<stop stop-color="#10411B"/>
<stop offset="1" stop-color="#28A745"/>
</linearGradient>
<linearGradient id="paint1_linear_130_1148" x1="11.8096" y1="6.40002" x2="62.5116" y2="59.6427" gradientUnits="userSpaceOnUse">
<stop stop-color="white" stop-opacity="0.25"/>
<stop offset="1" stop-color="white" stop-opacity="0"/>
</linearGradient>
<linearGradient id="paint2_linear_130_1148" x1="38.7007" y1="31.5362" x2="41.5849" y2="17.4" gradientUnits="userSpaceOnUse">
<stop stop-color="white"/>
<stop offset="1" stop-color="white" stop-opacity="0.2"/>
</linearGradient>
<linearGradient id="paint3_linear_130_1148" x1="38.7007" y1="31.5362" x2="41.5849" y2="17.4" gradientUnits="userSpaceOnUse">
<stop stop-color="white"/>
<stop offset="1" stop-color="white" stop-opacity="0.2"/>
</linearGradient>
<linearGradient id="paint4_linear_130_1148" x1="38.7007" y1="31.5362" x2="41.5849" y2="17.4" gradientUnits="userSpaceOnUse">
<stop stop-color="white"/>
<stop offset="1" stop-color="white" stop-opacity="0.2"/>
</linearGradient>
</defs>
</svg>
